<?xml version="1.0" encoding="UTF-8" standalone="no"?>
<svg
   xmlns:dc="http://purl.org/dc/elements/1.1/"
   xmlns:cc="http://creativecommons.org/ns#"
   xmlns:rdf="http://www.w3.org/1999/02/22-rdf-syntax-ns#"
   xmlns:svg="http://www.w3.org/2000/svg"
   xmlns="http://www.w3.org/2000/svg"
   viewBox="0 0 436.125 445.02875"
   height="445.02875"
   width="436.125"
   xml:space="preserve"
   version="1.1"
   id="svg2"><metadata
     id="metadata8"><rdf:RDF><cc:Work
         rdf:about=""><dc:format>image/svg+xml</dc:format><dc:type
           rdf:resource="http://purl.org/dc/dcmitype/StillImage" /><dc:title></dc:title></cc:Work></rdf:RDF></metadata><defs
     id="defs6"><clipPath
       id="clipPath42"
       clipPathUnits="userSpaceOnUse"><path
         id="path44"
         d="m 0,0 0,4735 3489,0 L 3489,0 0,0 Z" /></clipPath><clipPath
       id="clipPath48"
       clipPathUnits="userSpaceOnUse"><path
         style="clip-rule:evenodd"
         id="path50"
         d="m 3489.02,2914.3 c 0,126.22 -11.32,247.6 -32.37,364.11 l -1676.54,0 0,-688.58 958.03,0 c -41.27,-222.51 -166.69,-411.05 -355.21,-537.27 l 0,-446.65 575.29,0 c 336.61,309.91 530.8,766.26 530.8,1308.39 l 0,0 0,0 z" /></clipPath><clipPath
       id="clipPath58"
       clipPathUnits="userSpaceOnUse"><path
         style="clip-rule:evenodd"
         id="path60"
         d="m 1780.11,1174.64 c 480.63,0 883.59,159.4 1178.11,431.27 l -575.29,446.65 c -159.41,-106.81 -363.31,-169.92 -602.82,-169.92 -463.64,0 -856.075,313.14 -996.051,733.9 l -594.719,0 0,-461.22 c 292.906,-581.78 894.9,-980.68 1590.77,-980.68 l 0,0 0,0 z" /></clipPath><clipPath
       id="clipPath68"
       clipPathUnits="userSpaceOnUse"><path
         style="clip-rule:evenodd"
         id="path70"
         d="m 784.059,2616.54 c -35.61,106.8 -55.836,220.89 -55.836,338.22 0,117.32 20.226,231.41 55.836,338.22 l 0,461.2 -594.719,0 C 68.7734,3513.87 0,3242 0,2954.76 0,2667.51 68.7734,2395.63 189.34,2155.32 l 594.719,461.22 0,0 0,0 z" /></clipPath><clipPath
       id="clipPath78"
       clipPathUnits="userSpaceOnUse"><path
         style="clip-rule:evenodd"
         id="path80"
         d="m 1780.11,4026.87 c 261.35,0 496.01,-89.82 680.49,-266.21 l 510.57,510.57 c -308.29,287.24 -711.24,463.64 -1191.06,463.64 -695.87,0 -1297.864,-398.91 -1590.77,-980.69 l 594.719,-461.2 c 139.976,420.75 532.411,733.89 996.051,733.89 l 0,0 0,0 z" /></clipPath></defs><g
     transform="matrix(1.25,0,0,-1.25,0,591.85875)"
     id="g10"><g
       transform="scale(0.1,0.1)"
       id="g12"><g
         id="g38"><g
           clip-path="url(#clipPath42)"
           id="g40"><g
             clip-path="url(#clipPath48)"
             id="g46"><path
               id="path52"
               style="fill:#5575c3;fill-opacity:1;fill-rule:nonzero;stroke:none"
               d="m 791.16,616.961 3686.81,0 0,3650.4 -3686.81,0 0,-3650.4 z" /></g></g></g><g
         id="g54"><g
           clip-path="url(#clipPath58)"
           id="g56"><path
             id="path62"
             style="fill:#3bac49;fill-opacity:1;fill-rule:nonzero;stroke:none"
             d="m 0,185.68 3947.18,0 0,3419.8 -3947.18,0 0,-3419.8 z" /></g></g><g
         id="g64"><g
           clip-path="url(#clipPath68)"
           id="g66"><path
             id="path72"
             style="fill:#f5b60b;fill-opacity:1;fill-rule:nonzero;stroke:none"
             d="m 0,1166.37 1773.01,0 0,3576.77 -1773.01,0 0,-3576.77 z" /></g></g><g
         id="g74"><g
           clip-path="url(#clipPath78)"
           id="g76"><path
             id="path82"
             style="fill:#e8302f;fill-opacity:1;fill-rule:nonzero;stroke:none"
             d="m 0,2304.02 3960.12,0 0,3419.8 -3960.12,0 0,-3419.8 z" /></g></g></g></g></svg>